HIERARCHY
ROOT Hips
{
	OFFSET -0.179506 -22.333345 2.821913
	CHANNELS 6 Xposition Yposition Zposition Zrotation Yrotation Xrotation 
	JOINT LeftUpLeg
	{
		OFFSET 6.951974 -9.140623 -0.681533
		CHANNELS 3 Zrotation Yrotation Xrotation
		JOINT LeftLeg
		{
			OFFSET 3.427654 -37.519855 -0.449580
			CHANNELS 3 Zrotation Yrotation Xrotation
			JOINT LeftFoot
			{
				OFFSET -1.359570 -39.796059 -4.369333
				CHANNELS 3 Zrotation Yrotation Xrotation
				JOINT LeftToe
				{
					OFFSET 2.635814 -5.579078 11.928840
					CHANNELS 3 Zrotation Yrotation Xrotation
					End Site
					{
						OFFSET 0.000000 0.000000 0.000000
					}
				}
			}
		}
	}
	JOINT RightUpLeg
	{
		OFFSET -6.767048 -9.052170 -0.431982
		CHANNELS 3 Zrotation Yrotation Xrotation
		JOINT RightLeg
		{
			OFFSET -3.829005 -38.256897 -0.885003
			CHANNELS 3 Zrotation Yrotation Xrotation
			JOINT RightFoot
			{
				OFFSET 1.577377 -39.841461 -4.231180
				CHANNELS 3 Zrotation Yrotation Xrotation
				JOINT RightToe
				{
					OFFSET -2.537174 -4.814398 12.334795
					CHANNELS 3 Zrotation Yrotation Xrotation
					End Site
					{
						OFFSET 0.000000 0.000000 0.000000
					}
				}
			}
		}
	}
	JOINT Spine
	{
		OFFSET -0.253288 10.896323 -2.669631
		CHANNELS 3 Zrotation Yrotation Xrotation
		JOINT Spine1
		{
			OFFSET 0.548704 13.518043 0.109247
			CHANNELS 3 Zrotation Yrotation Xrotation
			JOINT Spine2
			{
				OFFSET 0.145701 5.292222 2.542457
				CHANNELS 3 Zrotation Yrotation Xrotation
				JOINT Neck
				{
					OFFSET -0.277840 21.387037 -4.285703
					CHANNELS 3 Zrotation Yrotation Xrotation
					JOINT Head
					{
						OFFSET 0.515184 6.496960 5.134897
						CHANNELS 3 Zrotation Yrotation Xrotation
						End Site
						{
							OFFSET 0.000000 0.000000 0.000000
						}
					}
				}
				JOINT LeftShoulder
				{
					OFFSET 7.884473 12.174932 -3.408961
					CHANNELS 3 Zrotation Yrotation Xrotation
					JOINT LeftArm
					{
						OFFSET 9.097692 3.046888 -0.886815
						CHANNELS 3 Zrotation Yrotation Xrotation
						JOINT LeftForeArm
						{
							OFFSET 25.961220 -1.277207 -2.745643
							CHANNELS 3 Zrotation Yrotation Xrotation
							JOINT LeftHand
							{
								OFFSET 24.923361 0.898606 -0.117091
								CHANNELS 3 Zrotation Yrotation Xrotation
								End Site
								{
									OFFSET 0.000000 0.000000 0.000000
								}
							}
						}
					}
				}
				JOINT RightShoulder
				{
					OFFSET -8.175920 11.883285 -3.861528
					CHANNELS 3 Zrotation Yrotation Xrotation
					JOINT RightArm
					{
						OFFSET -9.601238 3.255117 -0.914307
						CHANNELS 3 Zrotation Yrotation Xrotation
						JOINT RightForeArm
						{
							OFFSET -25.374195 -1.332924 -2.140099
							CHANNELS 3 Zrotation Yrotation Xrotation
							JOINT RightHand
							{
								OFFSET -25.529810 0.777228 -0.555919
								CHANNELS 3 Zrotation Yrotation Xrotation
								End Site
								{
									OFFSET 0.000000 0.000000 0.000000
								}
							}
						}
					}
				}
			}
		}
	}
}
MOTION
Frames: 7
Frame Time: 0.033333
4.678535 0.686171 106.794533 -40.215986 1.156593 96.821802 3.532096 -3.331654 8.715237 -9.054473 -12.922164 38.689882 -13.284899 11.486080 17.882275 nan nan nan -0.236564 -6.935672 7.988374 8.255753 0.352710 58.184533 13.261378 -2.706526 15.181053 nan nan nan -2.345713 4.118803 -6.177424 7.098261 -7.164320 9.454214 1.646023 -0.024720 -8.441409 1.841293 -3.737576 26.682595 2.308950 -3.521910 -2.516561 17.699897 -21.372507 -16.870675 16.548964 -31.123787 -32.412714 15.079115 -24.162848 -29.388953 -4.471093 -16.750144 -14.315297 -15.094591 16.486141 -17.533800 -17.318320 29.720677 -31.582963 -21.657593 22.789848 -27.830648 4.067820 14.880003 -17.770288 
3.304293 -0.637632 107.350578 -39.818165 0.923060 95.952765 3.800539 -2.284323 7.521350 -11.318500 -12.912916 44.256299 -13.812965 11.119037 18.724302 nan nan nan -1.181981 -7.613528 6.768616 7.369535 -1.267412 63.570265 12.799178 -2.567194 14.014064 nan nan nan -2.495409 3.941627 -5.005273 7.171678 -7.057081 8.881524 1.653220 -0.289956 -7.845031 2.015855 -3.971792 27.355810 2.300504 -3.693440 -2.470692 17.540907 -20.706057 -16.738341 16.455882 -29.512315 -31.830123 14.245971 -24.186585 -28.756867 -3.676577 -16.497476 -14.611614 -14.876420 15.574919 -17.385192 -16.973473 27.345918 -31.258939 -21.094089 22.276970 -28.137944 2.994735 15.178207 -17.217873 
1.986366 -1.873514 107.844315 -39.409873 0.728121 95.258102 4.149300 -1.002407 6.080698 -12.840368 -12.391528 49.443639 -14.119309 10.673742 19.188036 nan nan nan -1.933273 -8.023189 5.204037 5.862762 -2.877604 69.095360 13.100344 -3.195210 11.237221 nan nan nan -2.638917 3.624525 -3.566166 7.283968 -6.850106 7.952552 1.724050 -0.436269 -7.225897 2.243200 -4.104352 27.780684 2.149503 -3.880736 -2.265396 17.484308 -19.984864 -16.530172 16.207912 -28.190655 -31.446389 13.301489 -23.731249 -28.316718 -2.482394 -16.648389 -14.369822 -14.707688 14.656222 -17.245126 -16.236759 25.014529 -30.693867 -20.751669 21.668684 -29.006881 2.050032 15.765118 -16.688042 
0.720869 -3.022823 108.286819 -39.101185 0.719744 94.635590 4.809420 0.538141 4.688975 -13.458969 -11.446003 53.978117 -14.485582 10.135852 18.692027 nan nan nan -2.429501 -8.226999 3.347706 4.302340 -4.163342 74.349356 12.985762 -3.353722 9.114795 nan nan nan -2.586774 3.134313 -2.032075 7.442809 -6.598562 7.010248 1.816938 -0.423959 -6.438346 2.530078 -3.969092 28.291660 1.960525 -4.174362 -2.354048 17.407123 -18.992453 -16.366784 15.722676 -27.095617 -31.231778 12.645162 -22.980011 -27.665432 -2.112635 -17.186788 -13.621247 -14.413522 13.535807 -16.976171 -15.638780 22.881911 -30.327573 -20.143869 21.048011 -29.489025 0.480903 16.336869 -17.613992 
-0.487355 -4.101723 108.683945 -38.910909 0.792250 94.135933 5.476369 1.978850 3.243921 -13.413030 -10.214127 58.018695 -14.999923 9.637946 17.098754 nan nan nan -2.790682 -8.224427 1.155570 2.775029 -5.096121 79.372836 12.921508 -3.100811 7.174954 nan nan nan -2.322525 2.614050 -0.271224 7.592185 -6.380690 6.054873 1.821997 -0.434631 -5.866051 2.689881 -3.742346 28.872765 1.774095 -4.474687 -2.398869 17.279221 -17.903627 -16.109179 14.928509 -25.826622 -30.742702 12.346622 -22.280166 -27.762859 -2.204103 -17.650683 -12.755944 -13.830439 12.515094 -16.559713 -15.092452 21.064076 -30.196454 -19.658825 20.403546 -30.545098 -0.659659 16.666204 -18.045496 
-1.613831 -5.135635 109.040939 -38.970843 0.865685 93.804806 5.780267 3.076641 1.616089 -12.820992 -8.655593 61.607677 -15.004344 9.241314 15.259256 nan nan nan -3.047531 -8.142422 -1.578788 1.746967 -5.392297 84.187721 12.766312 -2.962266 5.399927 nan nan nan -1.945580 2.221781 1.604723 7.687760 -6.113926 5.068031 1.865716 -0.445951 -5.419922 2.377563 -3.756963 29.474377 1.573017 -4.389715 -2.389325 16.901041 -17.139528 -15.776074 14.152267 -24.074851 -30.424180 11.976112 -21.910515 -28.464351 -2.639926 -17.887216 -11.641471 -13.169760 11.790989 -16.236741 -14.416385 19.240566 -30.297719 -19.357193 19.854543 -32.136369 -0.841117 16.892641 -16.751907 
-2.664479 -6.116643 109.364456 -39.004374 1.050103 93.507281 5.943021 3.931423 -0.251940 -11.959197 -7.230279 65.064552 -14.541400 9.025812 13.361981 nan nan nan -3.148742 -8.211914 -4.464579 1.358755 -5.404971 88.504185 11.842646 -2.875962 3.743489 nan nan nan -1.435293 1.844113 3.712240 7.777524 -5.906627 3.963665 2.010526 -0.469279 -4.911438 1.794085 -3.812772 30.014419 1.450229 -4.103154 -2.532467 16.423839 -16.526641 -15.193679 13.168849 -21.748481 -30.271032 11.836462 -22.097414 -28.602668 -3.396599 -17.726456 -10.259410 -12.502211 11.202833 -15.956085 -13.718889 17.299044 -30.824602 -18.817573 19.543119 -33.075297 0.033589 16.851257 -15.095172 
